<svg width="100" height="64" viewBox="0 0 100 64" fill="none" xmlns="http://www.w3.org/2000/svg">
<path d="M18.6396 63.62C15.3396 63.62 11.9796 63.2 8.55957 62.36C5.13957 61.58 2.28957 60.53 0.00957042 59.21L0.45957 46.97H1.35957L4.14957 52.82C4.98957 54.5 5.88957 56 6.84957 57.32C7.80957 58.58 9.12957 59.57 10.8096 60.29C12.0096 60.89 13.1496 61.31 14.2296 61.55C15.3696 61.73 16.6296 61.82 18.0096 61.82C21.6696 61.82 24.5496 60.83 26.6496 58.85C28.8096 56.87 29.8896 54.32 29.8896 51.2C29.8896 48.26 29.1696 45.98 27.7296 44.36C26.2896 42.68 23.9796 41.06 20.7996 39.5L17.1096 37.88C11.9496 35.6 7.89957 32.99 4.95957 30.05C2.07957 27.05 0.63957 23.09 0.63957 18.17C0.63957 14.63 1.53957 11.57 3.33957 8.99C5.19957 6.41 7.74957 4.43 10.9896 3.05C14.2896 1.67 18.1296 0.979997 22.5096 0.979997C25.6896 0.979997 28.6896 1.4 31.5096 2.24C34.3896 3.08 36.8796 4.22 38.9796 5.66L38.4396 16.46H37.5396L33.8496 9.71C32.8296 7.61 31.8096 6.13999 30.7896 5.3C29.7696 4.4 28.5996 3.77 27.2796 3.41C26.4996 3.17 25.7796 3.02 25.1196 2.96C24.4596 2.84 23.6196 2.78 22.5996 2.78C19.5396 2.78 16.9596 3.68 14.8596 5.48C12.7596 7.22 11.7096 9.59 11.7096 12.59C11.7096 15.65 12.5196 18.11 14.1396 19.97C15.7596 21.77 18.1296 23.39 21.2496 24.83L25.3896 26.63C31.1496 29.15 35.2896 31.85 37.8096 34.73C40.3296 37.55 41.5896 41.21 41.5896 45.71C41.5896 50.99 39.5796 55.31 35.5596 58.67C31.5996 61.97 25.9596 63.62 18.6396 63.62ZM47.0416 62V61.1L50.0116 60.2C51.0916 59.9 51.8716 59.33 52.3516 58.49C52.8316 57.59 53.0716 56.54 53.0716 55.34V12.05C52.4116 10.61 51.8716 9.53 51.4516 8.81C51.0916 8.09 50.6716 7.49 50.1916 7.01C49.7116 6.47 49.0516 5.81 48.2116 5.03L46.6816 3.5V2.6H62.6116L92.4916 43.37V9.44C92.4916 8.24 92.2816 7.16 91.8616 6.2C91.5016 5.24 90.7216 4.61 89.5216 4.31L86.5516 3.5V2.6H99.4216V3.5L96.9916 4.31C95.9116 4.67 95.2516 5.3 95.0116 6.2C94.7716 7.1 94.6516 8.15 94.6516 9.35V62.27H89.6116L55.2316 15.02V55.34C55.2316 56.54 55.4116 57.56 55.7716 58.4C56.1316 59.24 56.8816 59.84 58.0216 60.2L60.7216 61.1V62H47.0416Z" fill="black"/>
</svg>
